<?xml version="1.0" standalone="no"?>
<!DOCTYPE svg PUBLIC "-//W3C//DTD SVG 20010904//EN"
 "http://www.w3.org/TR/2001/REC-SVG-20010904/DTD/svg10.dtd">
<svg version="1.0" xmlns="http://www.w3.org/2000/svg"
 width="512.000000pt" height="512.000000pt" viewBox="0 0 512.000000 512.000000"
 preserveAspectRatio="xMidYMid meet">
<metadata>
Created by potrace 1.11, written by Peter Selinger 2001-2013
</metadata>
<g transform="translate(0.000000,512.000000) scale(0.100000,-0.100000)"
fill="#000000" stroke="none">
<path d="M4625 4330 c-22 -5 -62 -9 -90 -10 -59 -2 -178 -28 -300 -65 -22 -7
-74 -23 -115 -35 -41 -13 -79 -27 -84 -32 -6 -4 -18 -8 -28 -8 -10 0 -26 -4
-36 -9 -29 -15 -84 -38 -132 -54 -94 -31 -292 -117 -530 -230 -160 -75 -145
-73 -194 -30 -78 69 -183 91 -516 108 -119 6 -207 -1 -405 -34 -98 -17 -162
-46 -193 -88 -18 -25 -22 -26 -46 -15 -14 6 -38 17 -53 23 -16 6 -41 18 -58
27 -16 9 -37 19 -45 23 -8 4 -44 21 -79 38 -35 17 -70 31 -77 31 -8 0 -35 11
-62 24 -26 13 -58 28 -72 34 -14 5 -41 17 -60 25 -165 72 -320 127 -485 173
-27 7 -90 25 -140 38 -49 14 -106 26 -126 26 -20 0 -56 7 -79 15 -24 8 -77 15
-119 15 -62 0 -85 -5 -129 -27 -29 -15 -63 -37 -75 -49 -28 -28 -74 -120 -80
-159 -3 -16 -12 -59 -20 -95 -40 -177 -48 -271 -44 -485 5 -234 14 -310 46
-405 54 -160 89 -198 231 -250 49 -18 307 -24 405 -10 44 7 118 15 165 20 47
4 136 15 198 25 62 10 115 15 118 12 3 -3 -22 -38 -57 -79 -60 -71 -101 -129
-153 -218 -42 -71 -132 -261 -145 -305 -7 -22 -16 -49 -21 -60 -4 -11 -12 -38
-18 -60 -6 -22 -17 -65 -26 -95 -8 -30 -24 -98 -36 -150 -12 -52 -26 -115 -32
-140 -21 -90 -44 -252 -58 -415 -6 -66 -14 -163 -18 -215 -11 -123 -6 -394 8
-419 5 -11 10 -45 10 -76 0 -58 23 -120 41 -110 14 9 92 94 131 142 66 83 197
239 227 271 34 36 43 39 62 16 7 -9 22 -20 34 -25 11 -5 45 -30 75 -54 30 -25
80 -63 110 -84 31 -21 62 -46 69 -55 7 -9 19 -16 26 -16 8 0 15 -4 17 -8 5
-13 146 -122 157 -122 16 0 24 46 12 68 -6 12 -11 33 -11 48 0 15 -4 53 -10
83 -26 156 -33 271 -37 662 -4 349 -2 447 11 546 9 67 16 141 16 166 0 24 4
57 9 73 5 16 14 54 20 84 32 146 117 378 174 475 88 149 93 154 139 136 116
-45 357 -81 545 -81 191 0 343 21 492 68 l53 17 30 -35 c16 -19 37 -49 46 -67
61 -115 103 -214 136 -318 20 -66 41 -134 46 -151 6 -17 10 -42 10 -55 0 -14
4 -29 9 -35 5 -5 12 -34 15 -64 3 -30 12 -118 21 -195 19 -164 30 -812 15
-860 -5 -16 -12 -83 -14 -147 -3 -65 -7 -122 -11 -127 -5 -9 -15 -82 -31 -224
-9 -76 7 -85 69 -36 103 80 200 154 222 169 13 8 68 50 124 93 55 42 104 77
109 77 10 0 74 -73 207 -235 44 -54 104 -124 133 -156 28 -32 52 -63 52 -69 0
-5 6 -10 14 -10 10 0 16 18 20 63 2 34 9 96 15 137 13 99 13 389 0 515 -5 55
-14 147 -20 205 -13 152 -40 328 -57 370 -16 42 -32 118 -32 155 0 18 -4 37
-10 40 -5 3 -10 18 -10 33 0 14 -6 44 -14 67 -7 22 -19 58 -25 80 -7 22 -16
49 -21 60 -4 11 -15 39 -24 62 -72 195 -172 374 -262 472 -53 58 -80 99 -70
108 3 3 48 -2 101 -11 53 -9 113 -16 133 -16 20 0 72 -7 115 -15 117 -22 316
-30 422 -16 143 19 203 42 256 98 46 48 64 86 84 176 9 40 20 86 25 103 13 42
13 601 0 609 -5 3 -10 35 -10 70 0 35 -6 79 -14 97 -8 18 -20 60 -26 93 -6 33
-16 68 -21 77 -5 10 -9 23 -9 30 -1 33 -113 131 -160 140 -14 3 -32 8 -40 11
-8 2 -33 1 -55 -3z m-3910 -89 c218 -46 540 -154 742 -248 l78 -37 -35 -6 -35
-6 45 -23 c25 -13 47 -27 50 -30 3 -4 18 -15 34 -25 45 -29 14 -36 -75 -16
-43 10 -79 16 -79 14 0 -3 6 -15 14 -27 19 -31 19 -141 1 -178 -10 -19 -16
-60 -17 -117 0 -48 -5 -93 -10 -99 -6 -7 -8 -19 -5 -26 5 -13 -18 -115 -28
-125 -2 -3 25 -15 60 -27 36 -12 68 -24 71 -28 15 -14 -11 -26 -71 -32 -36 -4
-67 -10 -69 -14 -9 -14 34 -50 70 -58 36 -7 33 -8 -41 -14 -89 -7 -617 -3
-736 6 -150 12 -321 -27 -379 -85 -12 -12 -23 -20 -25 -18 -2 2 -10 25 -17 51
l-12 47 38 39 c50 51 131 87 231 100 44 7 91 14 105 18 l25 6 -25 7 c-14 5
-72 8 -130 9 -93 1 -111 -2 -160 -25 -30 -14 -65 -34 -77 -46 l-21 -20 -9 48
c-14 85 -8 380 10 509 38 272 48 314 79 340 47 40 100 50 241 47 146 -3 155 6
44 40 -83 26 -215 30 -242 8 -21 -17 -32 -5 -14 16 38 47 69 56 174 50 55 -2
145 -14 200 -25z m4031 13 c30 -14 69 -53 61 -60 -2 -2 -23 4 -47 12 -63 22
-172 12 -321 -31 -211 -61 -211 -76 0 -45 216 31 327 24 383 -23 32 -27 47
-92 78 -339 20 -169 25 -334 14 -471 l-7 -76 -40 34 c-70 60 -117 70 -327 70
-118 -1 -192 -5 -205 -12 -18 -10 -16 -12 15 -17 19 -3 98 -10 175 -16 77 -5
163 -16 191 -25 63 -18 124 -62 153 -108 18 -29 19 -39 10 -68 -6 -19 -13 -40
-15 -48 -3 -10 -14 -4 -34 21 -16 20 -51 46 -77 58 -95 45 -137 51 -347 50
-109 0 -201 -2 -205 -4 -3 -2 -132 -7 -286 -10 -175 -4 -272 -2 -260 3 11 5
30 10 41 10 14 1 24 9 28 25 4 18 15 26 43 32 l38 7 -50 8 c-27 4 -122 7 -212
6 -89 -2 -170 0 -180 4 -29 10 181 53 380 76 58 7 61 21 5 25 l-42 3 -3 75
c-4 94 -27 299 -38 323 -4 10 -2 24 5 32 11 13 10 18 -5 29 -18 13 -17 15 10
40 15 14 25 29 22 33 -4 3 -71 -15 -149 -40 -79 -25 -156 -49 -173 -52 l-30
-7 25 21 c14 12 81 50 150 86 69 35 117 64 108 65 -55 1 0 28 249 125 392 153
763 229 869 179z m-3176 -314 c12 -8 11 -10 -7 -10 -13 0 -23 5 -23 10 0 13
11 13 30 0z m1200 -34 c120 -16 225 -41 288 -67 l43 -19 -5 -285 c-3 -157 -8
-290 -11 -296 -4 -6 -12 -3 -20 8 -13 17 -42 18 -500 18 l-486 0 -6 -23 c-13
-53 -21 3 -24 163 -1 94 -1 227 -1 297 2 147 -7 135 123 169 176 46 412 60
599 35z m-795 -734 c-4 -15 -24 -41 -45 -59 -33 -28 -61 -85 -48 -98 2 -2 19
9 37 26 35 30 58 39 44 17 -4 -7 -24 -38 -44 -68 -101 -153 -196 -403 -253
-670 -28 -130 -45 -278 -58 -497 -7 -117 -16 -207 -20 -200 -4 6 -8 27 -8 45
0 37 -16 42 -31 10 -16 -38 -2 301 21 472 11 85 22 175 25 200 5 45 5 45 -9
15 -7 -17 -27 -87 -44 -155 -27 -111 -44 -198 -83 -442 -6 -36 -12 -75 -14
-85 -2 -10 -4 -36 -4 -57 -1 -55 -8 -42 -15 27 -3 33 -10 65 -16 71 -7 9 -37
12 -102 9 -51 -2 -99 -6 -107 -8 -7 -3 -20 0 -27 6 -11 9 -17 9 -28 0 -9 -7
-22 -8 -37 -3 -37 14 -89 -12 -89 -42 0 -14 -5 -28 -11 -32 -26 -16 17 249 86
530 52 212 38 216 -36 11 -39 -109 -100 -330 -139 -505 -18 -80 -34 -147 -37
-150 -17 -17 33 305 78 507 102 462 297 774 635 1014 134 95 247 149 147 71
-26 -21 -54 -46 -62 -55 -12 -15 -11 -17 5 -17 11 0 35 10 54 22 105 64 223
125 233 120 5 -2 6 -16 2 -30z m1243 -5 c41 -26 66 -37 100 -43 30 -6 28 2
-10 37 -56 51 5 29 142 -51 68 -40 223 -161 286 -224 262 -260 391 -550 483
-1088 33 -188 42 -370 12 -227 -102 483 -199 786 -309 957 -18 30 -36 52 -38
49 -3 -3 15 -54 39 -113 91 -221 164 -508 202 -788 6 -43 5 -48 -8 -38 -8 7
-17 30 -21 51 l-6 39 -52 -4 c-87 -7 -265 -4 -297 6 -17 5 -31 8 -32 7 0 -1
-6 -51 -13 -112 l-14 -110 -1 74 c-3 216 -134 865 -191 951 -15 23 -13 -32 6
-120 58 -276 96 -594 93 -784 l-1 -81 -9 59 c-10 65 -19 85 -19 40 0 -16 -4
-35 -9 -43 -6 -9 -11 15 -15 65 -28 344 -40 453 -61 568 -48 259 -130 497
-237 690 -55 99 -60 115 -65 182 -3 41 -2 74 1 74 4 0 23 -10 44 -23z m1501
-132 c47 -16 101 -51 101 -65 0 -11 -49 -33 -108 -49 -49 -14 -70 -7 -28 8 14
6 26 15 26 20 0 6 6 8 13 5 13 -5 56 21 47 28 -3 2 -34 19 -70 36 -67 33 -55
44 19 17z m-4279 -29 c0 -8 -13 -19 -30 -25 -36 -12 -39 -31 -5 -31 14 0 25
-4 25 -10 0 -5 9 -10 19 -10 11 0 23 -4 26 -10 9 -15 -34 -11 -90 9 -28 10
-50 24 -50 32 0 8 20 24 45 37 52 26 60 27 60 8z m3697 -1438 c-3 -7 -5 -2 -5
12 0 14 2 19 5 13 2 -7 2 -19 0 -25z m-2563 -754 c9 -24 7 -28 -9 -14 -17 14
-20 30 -6 30 5 0 12 -7 15 -16z"/>
</g>
</svg>
